<svg width="24" height="25" viewBox="0 0 24 25" fill="none" xmlns="http://www.w3.org/2000/svg">
<path d="M17.85 11.5055C19.5535 11.5055 21 12.925 21 14.7363V17.5055H19.65V18.4286H18.75V17.5055H5.25V18.4286H4.35V17.5055H3V14.7363C3 12.9891 4.39756 11.5055 6.15 11.5055H17.85ZM16.95 6.42859C18.1599 6.42859 19.2003 7.42624 19.2 8.73628L19.2003 10.9414C18.7911 10.7112 18.3332 10.5824 17.85 10.5824L16.95 10.582C16.95 9.79153 16.319 9.19782 15.6 9.19782H12.9C12.5543 9.19782 12.2389 9.33112 12 9.55035C11.7615 9.33128 11.446 9.19782 11.1 9.19782H8.4C7.65457 9.19782 7.05024 9.81748 7.05 10.582L6.15 10.5824C5.6669 10.5824 5.2092 10.7111 4.8 10.9411V8.73628C4.8 7.49532 5.77046 6.42859 7.05 6.42859H16.95ZM11.1 10.1207C11.3442 10.1207 11.55 10.3514 11.55 10.5824L7.95 10.582C7.95 10.2996 8.16922 10.1209 8.4 10.1209L11.1 10.1207ZM15.6 10.124C15.8546 10.1207 16.0498 10.3455 16.05 10.582H12.45C12.45 10.2956 12.6692 10.1209 12.9 10.1209L15.6 10.124Z" fill="#01816A"/>
</svg>
