<svg width="24" height="25" viewBox="0 0 24 25" fill="none" xmlns="http://www.w3.org/2000/svg">
<path d="M20.5378 8.40001L13.0178 3.71306C12.3982 3.33046 11.5998 3.33438 10.984 3.72127L3.45611 8.40393C2.98867 8.69772 2.8595 9.29742 3.16703 9.74339C3.47497 10.1894 4.10315 10.313 4.571 10.0188L12.0078 5.39248L19.4357 10.0227C19.6062 10.1279 19.7969 10.1776 19.9855 10.1776C20.3185 10.1776 20.6432 10.0223 20.8372 9.73674C21.1414 9.28843 21.0069 8.69067 20.5378 8.40001Z" fill="#01816A"/>
<path d="M18.158 14.4934C18.1005 14.1559 17.8144 13.9063 17.4806 13.9063H17.097L16.9513 12.3508C16.7956 10.6872 15.4489 9.42859 13.8186 9.42859H10.1821C8.55141 9.42859 7.20503 10.6876 7.049 12.3508L6.90363 13.9063H6.51966C6.18553 13.9063 5.89974 14.1559 5.84152 14.4934L5.27069 17.8112C5.19991 18.2224 5.31331 18.6457 5.57513 18.9648C5.82706 19.2723 6.19809 19.4556 6.58625 19.4693V20.0202C6.58625 20.8001 7.19589 21.4286 7.95737 21.4286H8.39044C9.15115 21.4286 9.76993 20.8001 9.76993 20.0202V19.4783H14.2345V20.019C14.2345 20.7993 14.8484 21.4286 15.6091 21.4286H16.0425C16.8032 21.4286 17.4178 20.7993 17.4178 20.019V19.4693C17.806 19.4556 18.1747 19.2738 18.4259 18.9668C18.6877 18.6469 18.7996 18.2259 18.7296 17.8139L18.158 14.4934ZM7.79297 18.1986C7.15099 18.1986 6.6304 17.6653 6.6304 17.0063C6.6304 16.3474 7.15099 15.8137 7.79297 15.8137C8.43534 15.8137 8.95631 16.347 8.95631 17.0063C8.95631 17.6653 8.43534 18.1986 7.79297 18.1986ZM8.08295 13.9063L8.21729 12.4713C8.31509 11.4281 9.15953 10.6423 10.1821 10.6423H10.3917V11.0933C10.3917 11.4846 10.695 11.7964 11.0764 11.7964H12.9243C13.3056 11.7964 13.6142 11.4846 13.6142 11.0933V10.6427H13.8186C14.8411 10.6427 15.6856 11.4285 15.783 12.4717L15.9177 13.9066L8.08295 13.9063ZM16.2062 18.1986C15.5642 18.1986 15.0436 17.6653 15.0436 17.0063C15.0436 16.3474 15.5642 15.8137 16.2062 15.8137C16.8485 15.8137 17.3695 16.347 17.3695 17.0063C17.3695 17.6653 16.8485 18.1986 16.2062 18.1986Z" fill="#01816A"/>
</svg>
